<?xml version="1.0" standalone="no"?><!DOCTYPE svg PUBLIC "-//W3C//DTD SVG 1.1//EN" "http://www.w3.org/Graphics/SVG/1.1/DTD/svg11.dtd"><svg class="icon" width="200px" height="200.00px" viewBox="0 0 1024 1024" version="1.1" xmlns="http://www.w3.org/2000/svg"><path d="M492.3904 931.5328H855.04a73.6256 73.6256 0 0 0 73.5744-73.5744V410.112a73.5744 73.5744 0 0 0-55.808-71.3728L583.68 266.5984A73.5232 73.5232 0 0 0 492.3904 337.92z" fill="#FECC87" /><path d="M660.48 931.5328H199.68a93.44 93.44 0 0 1-93.44-93.44V269.4656a93.44 93.44 0 0 1 70.8096-90.624L544.3584 87.04A93.44 93.44 0 0 1 660.48 177.8688z" fill="#FD9F55" /><path d="M475.4432 437.6064H281.6a40.96 40.96 0 0 1 0-81.92h193.8432a40.96 40.96 0 0 1 0 81.92zM475.4432 633.2416H281.6a40.96 40.96 0 0 1 0-81.92h193.8432a40.96 40.96 0 1 1 0 81.92z" fill="#FFFFFF" /></svg>